<?xml version="1.0" encoding="UTF-8"?>
<svg xmlns="http://www.w3.org/2000/svg" width="18" height="14" viewBox="0 0 18 14" fill="none">
  <g clip-path="url(#clip0_615_17749)">
    <path d="M15.5048 0.130859H2.61843C2.049 0.131468 1.50308 0.357942 1.10043 0.760587C0.697786 1.16323 0.471312 1.70916 0.470703 2.27859V11.4831C0.471312 12.0526 0.697786 12.5985 1.10043 13.0011C1.50308 13.4038 2.049 13.6303 2.61843 13.6309H15.5048C16.0742 13.6303 16.6201 13.4038 17.0228 13.0011C17.4254 12.5985 17.6519 12.0526 17.6525 11.4831V2.27859C17.6519 1.70916 17.4254 1.16323 17.0228 0.760587C16.6201 0.357942 16.0742 0.131468 15.5048 0.130859ZM14.961 3.68343L9.43823 7.97889C9.33054 8.06261 9.19802 8.10806 9.06161 8.10806C8.92521 8.10806 8.79269 8.06261 8.68499 7.97889L3.16227 3.68343C3.09738 3.63443 3.04288 3.57302 3.00193 3.50278C2.96098 3.43253 2.9344 3.35484 2.92373 3.27424C2.91307 3.19363 2.91853 3.1117 2.9398 3.03322C2.96107 2.95474 2.99772 2.88128 3.04763 2.81708C3.09754 2.75289 3.15971 2.69926 3.23052 2.65931C3.30134 2.61935 3.37939 2.59386 3.46014 2.58433C3.54089 2.5748 3.62273 2.58142 3.7009 2.60379C3.77908 2.62616 3.85202 2.66384 3.9155 2.71465L9.06161 6.7171L14.2077 2.71465C14.3364 2.61748 14.4982 2.57486 14.658 2.59601C14.8179 2.61716 14.963 2.70039 15.062 2.82769C15.1609 2.95499 15.2058 3.11613 15.1869 3.27627C15.168 3.43641 15.0869 3.58267 14.961 3.68343Z" fill="#A12B4E"></path>
  </g>
  <defs>
    <clipPath id="clip0_615_17749">
      <rect width="18" height="13.9091" fill="white"></rect>
    </clipPath>
  </defs>
</svg>
