<?xml version="1.0" encoding="UTF-8"?>
<svg xmlns="http://www.w3.org/2000/svg" width="18" height="18" viewBox="0 0 18 18" fill="none">
  <path fill-rule="evenodd" clip-rule="evenodd" d="M12.4142 16.5996C11.3342 16.5599 8.27349 16.1369 5.06799 12.9321C1.86324 9.72661 1.44099 6.66661 1.40049 5.58586C1.34049 3.93886 2.60199 2.33911 4.05924 1.71436C4.23473 1.63858 4.42689 1.60973 4.61689 1.63064C4.80689 1.65154 4.98819 1.72149 5.14299 1.83361C6.34299 2.70811 7.17099 4.03111 7.88199 5.07136C8.03843 5.2999 8.10532 5.57802 8.06991 5.8527C8.0345 6.12739 7.89928 6.37945 7.68999 6.56086L6.22674 7.64761C6.15605 7.69866 6.10629 7.77363 6.0867 7.8586C6.06711 7.94357 6.07903 8.03276 6.12024 8.10961C6.45174 8.71186 7.04124 9.60886 7.71624 10.2839C8.39199 10.9589 9.33099 11.5874 9.97524 11.9564C10.056 12.0017 10.1511 12.0144 10.2409 11.9918C10.3308 11.9692 10.4085 11.913 10.4582 11.8349L11.4107 10.3851C11.5859 10.1525 11.8442 9.99666 12.1316 9.95024C12.4191 9.90383 12.7133 9.97043 12.9527 10.1361C14.008 10.8666 15.2395 11.6804 16.141 12.8346C16.2622 12.9905 16.3393 13.1762 16.3643 13.3721C16.3892 13.568 16.361 13.767 16.2827 13.9484C15.655 15.4131 14.0665 16.6604 12.4142 16.5996Z" fill="#A12B4E"></path>
</svg>
